<?xml version="1.0" encoding="iso-8859-1"?>
<!-- Generator: Adobe Illustrator 19.0.0, SVG Export Plug-In . SVG Version: 6.00 Build 0)  -->
<svg version="1.1" id="Capa_1" xmlns="http://www.w3.org/2000/svg" xmlns:xlink="http://www.w3.org/1999/xlink" x="0px" y="0px"
	 viewBox="0 0 512 512" style="enable-background:new 0 0 512 512;" xml:space="preserve">
<g>
	<g>
		<g>
			<path d="M176,356.755c97.202,0,176-78.798,176-176s-78.798-176-176-176S0,83.553,0,180.755
				C0.115,277.91,78.845,356.64,176,356.755z M176,36.755c79.529,0,144,64.471,144,144s-64.471,144-144,144s-144-64.471-144-144
				C32.088,101.263,96.508,36.843,176,36.755z"/>
			<rect x="28.095" y="469.539" transform="matrix(-0.4786 -0.878 0.878 -0.4786 -361.1261 756.6266)" width="32" height="32"/>
			<rect x="84.188" y="438.825" transform="matrix(-0.4786 -0.878 0.878 -0.4786 -251.2199 760.4661)" width="32" height="32"/>
			<polygon points="432,260.755 432,292.755 461.504,292.755 316.736,463.843 192.544,386.227 134.672,417.795 149.984,445.891 
				191.456,423.283 323.264,505.667 480,320.435 480,340.755 512,340.755 512,260.755 			"/>
			<path d="M128,292.755h32v-32h32v32h32v-44.48c19.599-17.321,21.445-47.251,4.124-66.85c-0.199-0.225-0.4-0.449-0.604-0.67
				c17.691-19.266,16.415-49.225-2.85-66.917c-0.221-0.203-0.445-0.404-0.67-0.604v-44.48h-32v32h-32v-32h-32v32h-16v160h16V292.755
				z M144,132.755h48c8.837,0,16,7.163,16,16s-7.163,16-16,16h-48V132.755z M144,196.755h48c8.837,0,16,7.163,16,16s-7.163,16-16,16
				h-48V196.755z"/>
		</g>
	</g>
</g>
<g>
</g>
<g>
</g>
<g>
</g>
<g>
</g>
<g>
</g>
<g>
</g>
<g>
</g>
<g>
</g>
<g>
</g>
<g>
</g>
<g>
</g>
<g>
</g>
<g>
</g>
<g>
</g>
<g>
</g>
</svg>
